<?xml version="1.0" standalone="no"?>
<!DOCTYPE svg PUBLIC "-//W3C//DTD SVG 20010904//EN"
 "http://www.w3.org/TR/2001/REC-SVG-20010904/DTD/svg10.dtd">
<svg version="1.0" xmlns="http://www.w3.org/2000/svg"
 width="1105.000000pt" height="1105.000000pt" viewBox="0 0 1105.000000 1105.000000"
 preserveAspectRatio="xMidYMid meet">
<metadata>
Created by potrace 1.11, written by Peter Selinger 2001-2013
</metadata>
<g transform="translate(0.000000,1105.000000) scale(0.100000,-0.100000)"
fill="#000000" stroke="none">
<path d="M5715 10188 c-1331 -357 -2421 -651 -2423 -652 -5 -6 -502 -7905
-500 -7950 3 -47 12 -60 508 -692 278 -353 512 -643 520 -644 8 0 614 160
1346 357 l1330 356 565 760 c310 418 570 765 577 773 7 7 12 40 12 81 0 59
500 8017 514 8196 6 60 4 67 -11 66 -10 -1 -1107 -293 -2438 -651z m2035 -728
c-37 -572 -68 -1041 -71 -1043 -2 -2 -308 -85 -679 -184 -600 -161 -675 -179
-678 -163 -2 10 6 170 18 355 11 186 19 339 17 341 -2 2 -1424 -375 -1433
-380 -4 -2 -274 -4309 -271 -4313 3 -2 372 449 821 1003 450 553 816 1007 814
1009 -1 1 -167 -35 -367 -81 -200 -46 -366 -82 -368 -80 -7 7 77 1300 85 1307
10 9 1995 539 2000 534 2 -2 -30 -537 -71 -1188 l-75 -1184 -1073 -1444 c-589
-794 -1077 -1450 -1084 -1457 -10 -11 -2276 -625 -2282 -618 -3 3 468 7469
471 7472 0 1 966 261 2146 577 1180 317 2145 576 2145 576 0 1 -29 -467 -65
-1039z"/>
</g>
</svg>
